<?xml version="1.0" encoding="UTF-8"?>
<svg id="Layer_2" data-name="Layer 2" xmlns="http://www.w3.org/2000/svg" viewBox="0 0 278.34 62.59">
  <defs>
    <style>
      .cls-1 {
        fill: #4d99d1;
      }

      .cls-2 {
        fill: #cc3129;
      }

      .cls-3 {
        fill: #8db133;
      }

      .cls-4 {
        fill: #e19423;
      }

      .cls-5 {
        fill: #5e2b28;
      }
    </style>
  </defs>
  <g id="_레이어_1" data-name="레이어 1">
    <g>
      <path class="cls-5" d="M44.49,28.71c0,1.82,1.22,8.17,8.69,8.2,7.47-.03,8.69-6.38,8.69-8.2v-12.84c0-1.81-1.22-8.17-8.69-8.2-7.47.03-8.69,6.39-8.69,8.2v12.84ZM35.73,16.27c0-.8.09-4.77,2.24-8.53C40.03,4.17,44.31.11,53.13.08h.09c8.82.03,13.1,4.09,15.15,7.66,2.16,3.76,2.25,7.73,2.25,8.53v12.12c0,.8-.09,4.76-2.25,8.52-2.05,3.58-6.33,7.63-15.15,7.66h-.09c-8.81-.03-13.1-4.08-15.16-7.66-2.15-3.76-2.24-7.73-2.24-8.52v-12.12Z"/>
      <path class="cls-5" d="M33.11,35.85l-.35-.55h0s0-.01,0-.01h-.02s-6.61-3.31-6.61-3.31h0l-.28-.08-.53.32h0l-.03.05v.02c-1.05,2.25-3.27,4.61-7.82,4.63-7.46-.04-8.69-6.38-8.69-8.2v-12.84c0-1.82,1.23-8.17,8.69-8.21,4.61.02,6.84,2.45,7.87,4.73l.57.39.27-.07h0l6.59-3.43h0s.31-.54.31-.54l-.04-.24-.39-.76C30.59,4.16,26.31.11,17.5.08h0s-.05,0-.05,0h-.06C8.59.11,4.3,4.16,2.24,7.75.09,11.51,0,15.47,0,16.27v12.12c0,.8.09,4.77,2.24,8.53,2.06,3.58,6.35,7.63,15.15,7.66h.1c8.81-.04,13.1-4.09,15.15-7.66.15-.27.27-.53.41-.79h0s.07-.28.07-.28"/>
      <path class="cls-5" d="M111.33,43.11V1.47c0-.33-.28-.61-.61-.61h0s-7.54,0-7.54,0h0c-.34,0-.61.28-.61.61v.05s0,14.73,0,14.73h-.03v12.5c0,1.82-1.21,8.18-8.68,8.2-7.47-.02-8.69-6.38-8.69-8.2V1.55h0c0-.35-.28-.62-.62-.62h-.01s0,0,0,0l-7.53.02h-.02c-.33-.01-.61.26-.61.6h0v26.85c0,.81.09,4.78,2.03,8.53,1.85,3.58,5.71,7.63,13.64,7.66h.09c5.24-.02,8.69-2.16,10.97-4.4v2.97h0c.02.32.28.6.61.6h.04s0,0,0,0h6.94c.33,0,.61-.28.61-.62v-.02"/>
      <path class="cls-4" d="M183.04,29.45c0,1.71-1.19,7.69-8.46,7.71-7.28-.02-8.46-6-8.46-7.71v-.69c0-1.71,1.18-7.68,8.46-7.71,7.27.03,8.46,6,8.46,7.71v.69ZM191.15,15.85c0-3.42-1.71-11.41-9.47-14.6-7.88-3.23-18.41.67-21.02,1.79h0c-.25.08-.45.31-.45.59l.08.28h-.01s2.13,6.06,2.13,6.06l.02-.02.56.39.22-.05h0c2.89-1.49,10.71-4.11,15.5-1.93,4.66,2.12,4.24,7.06,4.28,7.6v1.21c-2.26-1.64-5.41-3.21-9.85-3.22h-.07c-7.95.03-11.79,3.85-13.66,7.24-1.94,3.56-2.03,7.3-2.03,8.06h0c0,.76.09,4.51,2.03,8.06,1.87,3.39,5.71,7.21,13.66,7.24h.07c4.63-.01,7.85-1.69,10.12-3.44v2.04h0s0,.03,0,.03c.02.33.28.6.61.6h.04s0,0,0,0h6.6s.02,0,.02,0c.33,0,.59-.27.62-.6v-22.62h0v-4.72"/>
      <path class="cls-3" d="M232.88,16.24c0-.8-.08-4.77-2.02-8.52-1.87-3.58-5.72-7.63-13.65-7.67h0s-.05,0-.05,0h-.04s0,0,0,0c-5.21.02-8.65,2.14-10.94,4.36V1.51h0v-.03c0-.34-.26-.61-.58-.62h0s-7.01,0-7.01,0h0c-.34.01-.6.28-.6.62v.03s0,0,0,0v41.68h.01c.03.31.28.56.6.56h.04s0,0,0,0h7.49c.32,0,.58-.25.61-.56v-.04h0V15.44c.19-2.23,1.71-7.74,8.68-7.76,7.47.02,8.68,6.38,8.68,8.2v27.21h.02l-.02.03c0,.34.28.62.62.62h7.59c.34-.02.59-.29.59-.62v-26.88Z"/>
      <path class="cls-1" d="M264.76,15.98c0,1.67-1.22,7.74-8.69,7.77-7.47-.02-8.69-6.1-8.69-7.77v-.55c0-1.67,1.21-7.75,8.69-7.77,7.47.02,8.69,6.1,8.69,7.77v.55ZM278.34.9c0-.33-.26-.59-.58-.61h0c-4.5-.13-7.41,1.72-9.29,3.76-2.52-2.19-6.41-3.96-12.35-3.98h0s-.06,0-.06,0h-.05c-8.81.04-13.09,3.89-15.16,7.31-2.14,3.59-2.24,7.36-2.24,8.13v.41c0,.77.11,4.55,2.26,8.12.92,1.53,2.3,3.14,4.32,4.47-3.32,1.91-6.26,5.28-6.26,11.36v3.19h0c0,.35.26.61.59.62h0s25.21,0,25.21,0c3.03,0,4.56,2,4.99,3.88.54,2.39-.38,5.61-4.41,7.78v.02c-.23.08-.41.3-.41.57l.1.31h-.02l3.29,6h.01l.55.35.27-.06h0c7.63-3.88,9.29-11.22,8.08-16.62-1.33-5.89-6.32-9.85-12.45-9.85l-17.42.41c.96-5.26,7.1-5.16,7.84-5.13v-.02c.28.01.57.03.87.03h.11c8.81-.03,13.09-3.88,15.14-7.3,2.16-3.57,2.25-7.36,2.25-8.12v-.41c0-.65-.08-3.45-1.4-6.47,1.15-.8,2.95-1.53,5.59-1.4h.01c.33,0,.6-.25.62-.57V.9Z"/>
      <path class="cls-2" d="M144.11,28.75c0,1.82-1.22,8.18-8.69,8.2-7.47-.02-8.69-6.38-8.69-8.2v-12.83c0-1.83,1.22-8.18,8.69-8.2,7.47.02,8.69,6.37,8.69,8.2v12.83ZM150.88,7.75c-1.86-3.58-5.71-7.63-13.64-7.66h0s-.05,0-.05,0h-.04c-5.23.03-8.7,2.16-10.97,4.4V1.48h0c0-.35-.27-.61-.61-.61h-.03s0,0,0,0h-6.91v.02s-.03-.01-.03-.01c-.34,0-.61.27-.61.61h0s0,0,0,0v59.46h0c.01.33.27.6.61.6h7.62v-.02c.29-.04.51-.27.52-.56h0v-.03h0v-20.23c2.29,1.98,5.58,3.86,10.41,3.88h.09c7.93-.03,11.78-4.08,13.64-7.66,1.95-3.76,2.03-7.73,2.03-8.53v-12.11c0-.8-.09-4.77-2.03-8.52"/>
    </g>
  </g>
</svg>